<?xml version="1.0" encoding="utf-8"?>
<!-- Generator: Adobe Illustrator 25.2.3, SVG Export Plug-In . SVG Version: 6.00 Build 0)  -->
<svg version="1.1" id="Laag_1" xmlns="http://www.w3.org/2000/svg" xmlns:xlink="http://www.w3.org/1999/xlink" x="0px" y="0px"
	 viewBox="0 0 500 500" style="enable-background:new 0 0 500 500;" xml:space="preserve">
<style type="text/css">
	.st0{fill:#E62D2B;stroke:#7F1713;stroke-width:8;stroke-miterlimit:10;}
	.st1{fill:#4AAE50;stroke:#2C7832;stroke-width:4;stroke-miterlimit:10;}
	.st2{fill:none;stroke:#F8AB43;stroke-width:9;stroke-miterlimit:10;}
	.st3{fill:none;stroke:#1E7733;stroke-width:9;stroke-miterlimit:10;}
	.st4{fill:#FFFFFF;}
	.st5{fill:#282929;}
	.st6{fill:#FCF7C6;}
	.st7{fill:#1E1E1C;}
	.st8{fill:none;stroke:#1E1E1C;stroke-width:5;stroke-miterlimit:10;}
</style>
<path id="FIGUUR_18_" class="st0" d="M100.2,220.6c0,0,21.7-170.8,159.5-162.1s125.9,149.2,125.9,149.2s-11.9,145-19.6,176
	s-264.3,23.7-275.6,0S100.2,220.6,100.2,220.6z"/>
<path id="POTEN_18_" class="st0" d="M89.1,379.9c4.1,55.2,12.3,71.9,20.7,73.2c13.6,2,26.2-36.4,43.4-33.8c15,2.3,15.3,33.2,31,35.9
	c17.2,2.9,28.3-32.3,47.5-30.2c17.1,1.9,20.6,31.5,35.9,31.5c14.8,0,20-28.1,34.6-27.9c14.5,0.2,19.5,28.2,30.7,28.4
	c8.2,0.1,19.1-14.7,32.5-71.4"/>
<g id="STOK_13_">
	<path id="ZAK_13_" class="st1" d="M441.5,73.9c0,0-48.3,99.2-2.6,97.5c45.7-1.8,28.1-79.6,4.5-97.6"/>
	<polyline class="st2" points="418.9,43 422.4,62.2 440.9,75.1 372.8,224.8 308.2,348.9 	"/>
	<line class="st2" x1="440.9" y1="75.1" x2="457.1" y2="43.4"/>
	<line class="st3" x1="439" y1="79.6" x2="444.5" y2="68"/>
</g>
<path id="RECHTERHAND_18_" class="st0" d="M340.7,296.3c0,0-44.7,17.9-30.9,34.9c13.8,17.1,44.8-2.7,44.8-2.7"/>
<g id="OOG_56_">
	<path id="OOG_59_" class="st4" d="M174.8,167.9c-12.5,48.9,5.4,95.7,39.9,104.5c34.5,8.8,72.6-23.7,85-72.6s-5.4-95.7-39.9-104.5
		c-12.4-3.2-25.4-1-37.4,5.4c-4.4,2.3-8.6,5.2-12.7,8.6C194.1,122.4,181.1,143,174.8,167.9z"/>
	<path id="OOG_58_" class="st5" d="M187.3,171.2c-10.8,42.2,4.6,82.6,34.4,90.2c29.8,7.6,62.6-20.5,73.4-62.7s-4.6-82.6-34.4-90.2
		c-10.7-2.7-21.9-0.8-32.3,4.7c-3.8,2-7.4,4.5-10.9,7.4C203.9,132,192.7,149.8,187.3,171.2z"/>
	<ellipse id="OOG_57_" class="st4" cx="259.2" cy="150.3" rx="16" ry="12.8"/>
</g>
<path id="LINKERHAND_19_" class="st0" d="M138.7,335.5c0,0-35.9-32-17.2-43.4s41.2,17.8,41.2,17.8"/>
<g id="MAIL">
	<g>
		<path class="st6" d="M122.8,309.6c-0.8,0-1.7-0.2-2.4-0.6l-79.6-42.3c-2.5-1.3-3.5-4.5-2.2-7l29.9-56.2c0.9-1.7,2.7-2.8,4.6-2.8
			c0.8,0,1.7,0.2,2.4,0.6l79.6,42.3c1.2,0.7,2.1,1.7,2.5,3.1s0.3,2.7-0.4,4l-29.9,56.2C126.5,308.5,124.7,309.6,122.8,309.6z"/>
		<path class="st7" d="M73,203.6c0.3,0,0.7,0.1,1,0.3l79.6,42.3c1.1,0.6,1.5,1.9,0.9,3l-29.9,56.2c-0.4,0.7-1.2,1.2-2,1.2
			c-0.3,0-0.7-0.1-1-0.3L42.1,264c-1.1-0.6-1.5-1.9-0.9-3l29.9-56.2C71.5,204.1,72.2,203.6,73,203.6 M73,197.6c-3,0-5.8,1.7-7.3,4.4
			l-29.9,56.2c-1,1.9-1.2,4.2-0.6,6.3c0.6,2.1,2.1,3.8,4,4.8l79.6,42.3c1.2,0.6,2.5,1,3.9,1c3,0,5.8-1.7,7.3-4.4l29.9-56.2
			c1-1.9,1.2-4.2,0.6-6.3c-0.6-2.1-2.1-3.8-4-4.8l-79.6-42.3C75.7,198,74.4,197.6,73,197.6L73,197.6z"/>
	</g>
	<path class="st8" d="M72.1,202.8l16.5,54.3c1.4,4.6,6.3,7.3,11,6l55.6-15.6"/>
	<line class="st8" x1="123.7" y1="307.4" x2="111.4" y2="259.8"/>
	<line class="st8" x1="40.1" y1="263" x2="85.2" y2="246.2"/>
</g>
</svg>
