<?xml version="1.0" encoding="utf-8"?>
<!-- Generator: Adobe Illustrator 25.4.0, SVG Export Plug-In . SVG Version: 6.00 Build 0)  -->
<svg version="1.1" id="Layer_1" xmlns="http://www.w3.org/2000/svg" xmlns:xlink="http://www.w3.org/1999/xlink" x="0px" y="0px"
	 viewBox="0 0 371.1 294.71" style="enable-background:new 0 0 371.1 294.71;" xml:space="preserve">
<style type="text/css">
	.st0{fill:#FFFFFF;}
	.st1{fill:#131718;}
	.st2{fill:#F9F6C1;}
	.st3{fill:none;stroke:#131718;stroke-width:5;stroke-miterlimit:10;}
	.st4{fill:#EEAF8C;}
</style>
<g id="BIRD">
	<path class="st0" d="M337.2,288.3c-9.8,0-33.76-3.03-48.37-30.57c-0.62,0.59-1.28,1.36-1.73,1.99
		c-1.42,2.28-11.86,16.95-45.09,18.02c-1.98,0.06-3.9,0.1-5.73,0.1c-30.19,0-44.62-8.45-70.15-32.26l-0.4-0.37l-0.3-0.46
		c-17.78-27.16-46.26-47.64-66.24-47.64c-1.52,0-3,0.12-4.4,0.35l-0.29,0.05l-0.3,0.01c-0.14,0-0.27,0.01-0.41,0.01
		c-8.04,0-10.06-7.41-10.81-10.2l-0.07-0.28l-0.04-0.28c-0.08-0.58-1.88-14.29,6.13-23.49c4.54-5.22,11.12-7.87,19.55-7.87
		c4.66,0,9.96,0.83,15.76,2.48c15.44,4.52,24.08,9.82,27.86,12.57c1.95,1.42,4.02,2.47,6.17,3.12c5.61,1.7,14.46,3.72,24.75,3.72
		c17.65,0,32.43-5.91,43.95-17.57c32-32.39,49.84-57.42,75.09-146.69c0.65-2.31,2.09-4.17,4.05-5.25c1.12-0.62,2.29-0.93,3.47-0.93
		c7.45,0,9.45,10.96,9.82,20.15l0.01,0.31l-0.03,0.31c-0.12,1.25-1.7,16.4-6.71,35.51c2.27-7.05,4.52-14.94,6.71-23.79
		c0.42-1.71,1.25-3.26,2.4-4.48c2.52-2.67,4.99-3.23,6.62-3.23c1.54,0,3.8,0.48,5.86,2.76c3.23,3.57,4.75,10.54,3.97,18.19
		c-0.36,3.56-1.14,8.78-2.81,15.34c0.05-0.18,0.1-0.35,0.14-0.53c0.96-3.55,4.2-6.03,7.88-6.03c2.46,0,4.73,1.12,6.23,3.07
		c4.59,5.99,4.21,18.82,4.09,21.33l-0.01,0.24l-0.04,0.24c-0.12,0.8-1.62,9.83-6.85,22.25c0.7-0.28,1.46-0.43,2.24-0.43
		c2.37,0,4.46,1.33,5.48,3.46c6.25,13.19-1.3,33.31-6.29,38.63c-0.53,0.56-1.19,1.36-1.96,2.28c-2.19,2.61-5.17,6.19-9.82,10.45
		l0.51-0.01c1.63,0,3.8,0.97,4.54,3.7c1.24,4.63,0.29,19.87-13.77,27.99c-4.17,2.41-8.44,4.44-12.45,6.12
		c2.31,0.51,4.03,2.52,4.1,4.99c0.08,3-0.7,13.12-13.82,17.73c-3.75,1.32-7.77,2.25-11.62,2.91c2.24,0.44,4.66,1.32,7.05,3.05
		c0.77,0.56,1.57,1.2,2.41,1.88c6.39,5.14,18.28,14.71,55.41,15.73c3.77,0.1,6.73,3.13,6.73,6.9v7.04c0,2.12-0.95,4.03-2.46,5.3
		l0.83-0.12l-1.38,6.35C360.24,283.4,348.14,288.3,337.2,288.3z"/>
	<path class="st1" d="M309.65,11.36c4.69,0,5.32,15.83,5.32,15.83s-6.1,61.33-34.73,94.47c-1.95,2.45-0.98,5.86,1.65,5.86
		c1.69,0,4.05-1.39,6.78-5.33c6.92-10,22.32-29.81,35.15-81.76c0.23-0.91,0.66-1.78,1.3-2.47c1.19-1.26,2.32-1.82,3.35-1.82
		c3.77,0,6.21,7.52,5.35,16c-1.16,11.43-7.27,44.67-40.5,84.68c-1.58,3.57-0.42,6.06,2.12,6.06c2.14,0,5.26-1.77,8.54-6.16
		c7-9.36,25.98-31.17,35.99-68.14c0.46-1.7,2-2.7,3.54-2.7c0.98,0,1.96,0.41,2.65,1.31c3.82,4.98,3.16,18.37,3.16,18.37
		s-6.46,41.28-44.3,70.47c-1.56,1.21-2.4,3.25-1.79,5.13c0.44,1.36,1.35,2.26,2.82,2.26c1.82,0,4.5-1.38,8.2-5
		c8.49-8.31,25.16-26.72,33.5-44.95c0.27-0.6,0.84-0.9,1.41-0.9c0.56,0,1.13,0.3,1.41,0.89c5.32,11.23-1.49,29.34-5.51,33.62
		c-4.24,4.52-12.14,17.2-40.63,32.32c-1.88,1-3.1,3.03-2.78,5.13c0.27,1.78,1.29,3.04,3.44,3.04c1.97,0,4.9-1.06,9.07-3.78
		c11.63-7.56,22.28-15.41,22.87-16.37c0.02-0.03,0.04-0.04,0.05-0.04c0.64,0,2.34,15.3-11.49,23.3c-11.77,6.81-24.6,10.5-28.7,11.58
		c-0.97,0.26-1.84,0.77-2.52,1.51c-1.99,2.13-5.16,6.43,1.67,6.43c0.7,0,1.5-0.04,2.42-0.14c9.04-0.95,13.46-3.43,15.29-4.82
		c0.15-0.11,0.32-0.16,0.48-0.16c0.39,0,0.75,0.29,0.77,0.73c0.08,3.07-0.94,9.9-10.82,13.36c-10,3.51-22.12,4.14-27.17,4.25
		c-1.87,0.04-3.57,1.08-4.43,2.73c-1.03,1.96-1.14,4.31,3.89,4.65c0.87,0.06,1.72,0.08,2.55,0.08c3.72,0,7.08-0.47,10.22-0.47
		c3.29,0,6.32,0.51,9.22,2.61c6.19,4.47,16.96,17.27,60.33,18.45c1.3,0.04,2.35,1.09,2.35,2.4v7.04c0,1.24-0.93,2.28-2.16,2.41
		c-1.93,0.2-5.03,0.43-8.86,0.43c-10.13,0-25.37-1.64-37.55-9.98c-0.8-0.55-1.73-0.88-2.7-0.92c-0.34-0.02-0.73-0.03-1.13-0.03
		c-3.37,0-7.97,0.8-1.76,6.06c7.67,6.5,26.32,13.15,43.22,13.15c2.74,0,5.44-0.17,8.03-0.55c-1.94,8.91-12.89,12.3-21.02,12.3
		c-8.14,0-31.68-2.13-45.44-30.23c-0.63-0.87-1.37-1.22-2.14-1.22c-2.9,0-6.29,4.9-6.29,4.9s-8.33,14.92-41.47,15.99
		c-1.92,0.06-3.79,0.09-5.58,0.09c-29.18,0-42.71-8.32-67.08-31.05c-17.16-26.22-46.77-49.68-70.01-49.68
		c-1.75,0-3.46,0.13-5.13,0.41c-0.09,0-0.18,0-0.26,0c-4.34,0-5.57-3.56-6.47-6.88c0,0-3.65-26.24,21.22-26.24
		c4.04,0,8.84,0.69,14.53,2.31c14.6,4.27,22.72,9.17,26.44,11.88c2.29,1.67,4.8,2.97,7.51,3.79c5.47,1.66,14.97,3.92,26.06,3.92
		c14.81,0,32.45-4.03,47.15-18.9c31.92-32.3,50.54-57.84,76.22-148.63c0.29-1.04,0.93-2.01,1.88-2.53
		C308.81,11.48,309.24,11.36,309.65,11.36 M309.65,2.36c-1.94,0-3.84,0.5-5.64,1.48c-3.02,1.66-5.23,4.49-6.21,7.97
		c-24.96,88.26-42.51,112.92-73.96,144.75c-10.64,10.77-24.35,16.23-40.75,16.23c-10.26,0-19.09-2.21-23.45-3.53
		c-1.66-0.5-3.28-1.33-4.82-2.45c-4.91-3.58-13.96-8.78-29.21-13.24l-0.04-0.01l-0.04-0.01c-6.2-1.76-11.91-2.65-16.99-2.65
		c-12.19,0-19.2,5.12-22.94,9.41c-9.18,10.55-7.42,25.41-7.19,27.06l0.08,0.57l0.15,0.55c0.69,2.53,1.57,5.21,3.39,7.67
		c2.78,3.77,6.96,5.85,11.77,5.85c0.18,0,0.36,0,0.55-0.01l0.59-0.02l0.58-0.1c1.16-0.19,2.4-0.29,3.67-0.29
		c18.29,0,45.73,20.03,62.48,45.6l0.6,0.91l0.8,0.74c25.31,23.6,41.07,33.47,73.22,33.47c1.87,0,3.85-0.03,5.87-0.1
		c27.77-0.89,40.8-10.85,46.08-16.65c15.85,24.38,39.07,27.21,48.97,27.21c12.74,0,26.91-6,29.82-19.39l1.4-6.45
		c1.09-1.75,1.71-3.82,1.71-6.03v-7.04c0-6.22-4.88-11.23-11.11-11.4c-35.27-0.96-46.52-9.75-52.54-14.59
		c0.22-0.07,0.44-0.15,0.65-0.23c16-5.61,16.93-18.32,16.83-22.08c-0.03-1.24-0.29-2.41-0.73-3.49c2.27-1.1,4.56-2.3,6.83-3.61
		c16.02-9.26,17.6-26.58,15.86-33.06c-0.39-1.45-1.03-2.67-1.83-3.65c2.48-2.58,4.31-4.76,5.71-6.44c0.73-0.87,1.35-1.62,1.79-2.09
		c6.5-6.93,14.12-28.76,7.08-43.63c-1.11-2.35-3.05-4.17-5.37-5.17c3.64-9.93,4.78-16.78,4.89-17.49l0.07-0.47l0.02-0.48
		c0.19-3.91,0.4-17.23-5.01-24.29c-2.35-3.07-5.93-4.84-9.8-4.84c-0.41,0-0.82,0.02-1.22,0.06c0.21-1.45,0.37-2.75,0.48-3.89
		c0.92-9.01-0.99-17.11-5.11-21.67c-2.47-2.74-5.74-4.24-9.2-4.24c-1.26,0-2.83,0.2-4.53,0.88l0.06-0.57l-0.03-0.63
		c-0.02-0.47-0.21-4.74-1.05-9.22C320.54,5,314.39,2.36,309.65,2.36L309.65,2.36z"/>
</g>
<g id="VLEUGEL_1_">
	<path class="st0" d="M181.93,178.74c-19.94,0-35.84-11.81-46.06-20.7c-20.63-17.93-14.86-40.44-12.61-46.91
		c0.75-2.14,2.77-3.58,5.04-3.58c1.02,0,1.99,0.29,2.81,0.8c-4.66-10.4-7.52-19.49-7.95-24.12c-1.46-7.02,0.03-14.77,3.74-19.38
		c2.15-2.68,4.98-4.15,7.97-4.15c0.39,0,0.79,0.03,1.18,0.08c1.14,0.15,2.19,0.57,3.07,1.21c-0.59-6.85-0.28-12.54-0.08-16.08
		c0.03-0.6,0.06-1.15,0.08-1.63c0.28-6.27,5.37-11.78,10.9-11.78c1.8,0,5.49,0.63,8.06,5.3c-0.83-10.44,0.27-16.85,0.61-18.5
		c0.79-3.84,3.28-12.78,9.4-12.78c3.3,0,5.79,2.46,7.41,7.32l0.06,0.19l0.05,0.2c18.15,76.87,50.07,117.15,59.42,127.67
		c2.97,3.34,2.72,8.53-0.54,11.58C216.27,170.48,199.08,178.74,181.93,178.74C181.93,178.74,181.93,178.74,181.93,178.74z"/>
	<path class="st1" d="M168.09,11.03c1.04,0,2.12,1.18,3.14,4.25c18.46,78.19,51.19,119.22,60.43,129.62c1.37,1.54,1.26,3.9-0.25,5.3
		c-18.88,17.61-35.23,24.04-49.49,24.04c-17.12,0-31.23-9.27-43.11-19.59c-18.32-15.93-13.56-35.6-11.31-42.03
		c0.13-0.37,0.46-0.56,0.79-0.56c0.31,0,0.62,0.17,0.77,0.51c3.66,8.52,19.83,33.78,27.19,39.04c2.53,2.69,4.7,3.74,6.28,3.74
		c2.6,0,3.58-2.85,1.86-5.92c-20.06-17.29-36.04-55.23-36.77-65.84c-1.9-8.63,1.74-18.38,7.24-18.38c0.2,0,0.4,0.01,0.61,0.04
		c1.05,0.13,1.85,1,1.89,2.06c0.7,21.46,31.15,67.03,39.68,74.7c1.97,1.42,3.39,1.97,4.4,1.97c3.55,0,2.14-6.77,2.14-6.77
		c-9.01-8.43-22.96-30.67-32.55-49.12c-9.59-18.46-7.7-37.06-7.41-43.6c0.17-3.72,3.28-7.48,6.4-7.48c2.37,0,4.74,2.18,5.81,8.2
		c2.18,29.65,36.62,82.69,40.26,86.91c1.11,1.29,2.29,1.86,3.31,1.86c2.31,0,3.79-2.91,1.77-6.95
		c-44.91-60.89-39.24-101.15-38.08-106.82C163.88,16.36,165.89,11.03,168.09,11.03 M168.09,2.03c-6.74,0-11.65,5.82-13.81,16.38
		c-0.32,1.54-0.88,4.94-1.01,10.04c-1.36-0.36-2.52-0.44-3.24-0.44c0,0,0,0,0,0c-7.96,0-15,7.36-15.39,16.08
		c-0.02,0.46-0.05,0.99-0.08,1.58c-0.14,2.56-0.34,6.18-0.24,10.55c-4.16,0.17-8.01,2.22-10.9,5.82
		c-4.53,5.64-6.34,14.55-4.69,22.87c0.45,4.43,2.42,11.22,5.55,19.02c-2.41,1.09-4.34,3.13-5.25,5.73c-2.49,7.15-8.86,32,13.9,51.79
		c10.77,9.36,27.56,21.8,49.01,21.8c18.34,0,36.54-8.65,55.63-26.46c5.04-4.7,5.42-12.72,0.84-17.87
		c-9.17-10.32-40.49-49.87-58.4-125.71l-0.09-0.39l-0.13-0.38C176.9,3.83,171.84,2.03,168.09,2.03L168.09,2.03z"/>
</g>
<g id="MAIL">
	<g>
		<path class="st2" d="M89.51,278.08c-0.85,0-1.69-0.21-2.44-0.61L7.43,235.13c-2.54-1.35-3.5-4.51-2.16-7.04l29.89-56.22
			c0.91-1.71,2.67-2.76,4.6-2.76c0.85,0,1.69,0.21,2.44,0.61l79.63,42.33c1.23,0.65,2.13,1.75,2.54,3.08
			c0.41,1.33,0.27,2.74-0.38,3.97l-29.89,56.22C93.21,277.02,91.44,278.08,89.51,278.08z"/>
		<path class="st1" d="M39.77,172.1c0.35,0,0.7,0.08,1.04,0.26l79.63,42.34c1.08,0.57,1.49,1.91,0.91,2.99l-29.89,56.22
			c-0.4,0.75-1.16,1.17-1.95,1.17c-0.35,0-0.7-0.08-1.04-0.26L8.84,232.48c-1.08-0.57-1.49-1.91-0.91-2.99l29.89-56.22
			C38.21,172.53,38.98,172.1,39.77,172.1 M39.77,166.1L39.77,166.1c-3.04,0-5.82,1.67-7.25,4.36L2.63,226.68
			c-1.03,1.94-1.24,4.16-0.6,6.25c0.64,2.1,2.06,3.82,4,4.85l79.63,42.34c1.18,0.63,2.51,0.96,3.85,0.96c3.04,0,5.82-1.67,7.25-4.36
			l29.89-56.22c2.13-4,0.6-8.98-3.4-11.1l-79.63-42.34C42.44,166.43,41.11,166.1,39.77,166.1L39.77,166.1z"/>
	</g>
	<path class="st3" d="M38.85,171.32l16.52,54.35c1.41,4.62,6.29,7.28,10.98,5.97l55.57-15.55"/>
	<line class="st3" x1="90.43" y1="275.86" x2="78.11" y2="228.24"/>
	<line class="st3" x1="6.89" y1="231.45" x2="51.9" y2="214.65"/>
</g>
<g id="SNAVEL_1_">
	<path class="st4" d="M68.33,200.51c-0.52-1.32-0.44-2.68,0.23-3.93c2.38-4.45,12.04-6.62,13.14-6.85l1.53-0.33l0.26,1.54
		c0.11,0.63,0.11,0.67,1.55,2.93c0.33,0.53,0.74,1.16,1.22,1.94l1.79,2.86l-3.32-0.58c-0.47-0.08-1.02-0.12-1.61-0.12
		c-4.54,0-10.91,2.37-12.68,3.32l-1.48,0.79L68.33,200.51z"/>
	<path class="st1" d="M82,191.2c0.2,1.19,0.39,1.29,2.98,5.42c-0.58-0.1-1.21-0.15-1.87-0.15c-4.86,0-11.47,2.47-13.39,3.49
		C67.47,194.29,82,191.2,82,191.2 M84.44,187.61l-3.06,0.65c-1.9,0.4-11.5,2.67-14.15,7.61c-0.89,1.66-0.99,3.45-0.3,5.19l1.24,3.12
		l2.96-1.58c1.62-0.86,7.76-3.14,11.97-3.14c0.51,0,0.97,0.03,1.35,0.1l6.64,1.16l-3.58-5.71c-0.49-0.78-0.89-1.42-1.23-1.95
		c-1.27-2-1.27-2.02-1.33-2.37L84.44,187.61L84.44,187.61z"/>
</g>
<circle id="OOG" class="st1" cx="107.38" cy="175.63" r="4.31"/>
</svg>
