<?xml version="1.0" encoding="utf-8"?>
<!-- Generator: Adobe Illustrator 25.2.3, SVG Export Plug-In . SVG Version: 6.00 Build 0)  -->
<svg version="1.1" id="Laag_1" xmlns="http://www.w3.org/2000/svg" xmlns:xlink="http://www.w3.org/1999/xlink" x="0px" y="0px"
	 viewBox="0 0 131.1 102" style="enable-background:new 0 0 131.1 102;" xml:space="preserve">
<style type="text/css">
	.st0{fill:#010202;}
</style>
<path class="st0" d="M125.4,11.4l-119.7,0C2.6,11.4,0,8.9,0,5.7l0,0C0,2.6,2.6,0,5.7,0l119.7,0c3.2,0,5.7,2.6,5.7,5.7v0
	C131.1,8.9,128.6,11.4,125.4,11.4z"/>
<path class="st0" d="M125.4,56.7l-119.7,0C2.6,56.7,0,54.2,0,51l0,0c0-3.2,2.6-5.7,5.7-5.7l119.7,0c3.2,0,5.7,2.6,5.7,5.7v0
	C131.1,54.2,128.6,56.7,125.4,56.7z"/>
<path class="st0" d="M125.4,102L5.7,102C2.6,102,0,99.5,0,96.3l0,0c0-3.2,2.6-5.7,5.7-5.7l119.7,0c3.2,0,5.7,2.6,5.7,5.7v0
	C131.1,99.5,128.6,102,125.4,102z"/>
</svg>
